<svg width="82" height="31" viewBox="0 0 82 31" fill="none" xmlns="http://www.w3.org/2000/svg">
<path id="Vector" fill-rule="evenodd" clip-rule="evenodd" d="M21.7958 29.5981C12.1079 28.0589 6.85565 25.5366 4.72285 21.3834C4.29142 20.5254 3.8615 20.0375 3.07468 19.472C0.745087 15.9764 -1.76331 11.4439 2.77729 7.7965C7.56378 3.9643 22.4372 1.14171 38.8725 0.951278C41.226 0.920576 45.0233 0.809352 47.2961 0.68717C75.6156 -0.806361 86.6571 7.61724 79.4943 16.0521C75.1351 21.2016 67.9121 24.3562 55.3485 26.662C43.3847 28.8435 26.7562 27.5868 14.3022 24.0001C11.0474 23.0624 10.7975 23.7065 11.8043 24.3034C15.3552 26.423 24.2664 28.4178 33.3084 28.9784C41.3755 29.4832 45.0876 29.6164 50.8931 28.6187C53.1619 28.2327 54.6995 29.2819 51.2348 30.0571C47.5592 30.8521 32.3223 31.2702 21.7958 29.5981ZM75.2459 6.8785C70.8915 3.73786 61.9088 2.42597 47.8192 2.90451C0.734207 4.50919 6.8786 18.0722 6.8786 18.0722C6.92321 18.0818 23.4593 27.2563 52.403 25.052C66.6446 23.9821 88.2853 16.287 75.2459 6.8785ZM18.3615 5.112C23.0065 3.73884 17.4175 4.6274 10.4769 6.35608C-2.46038 9.57494 3.17009 14.9145 3.81494 15.9188C3.92162 10.8231 11.8614 7.02685 18.3615 5.112Z" fill="#228BE6"/>
</svg>
