<svg width="59" height="46" viewBox="0 0 59 46" fill="none" xmlns="http://www.w3.org/2000/svg">
<g id="Logo">
<path d="M53.725 23.4586C56.6383 23.4586 59 21.0981 59 18.1862C59 15.2744 56.6383 12.9138 53.725 12.9138C50.8117 12.9138 48.4499 15.2744 48.4499 18.1862C48.4499 21.0981 50.8117 23.4586 53.725 23.4586Z" fill="#228BE6"/>
<path d="M43.2954 0.0729335C43.2901 0.0729335 43.2365 0.0562381 43.1573 0.0404209C43.0123 0.0136592 42.8652 0.000130382 42.7178 0H5.4409C4.07685 0 2.76867 0.541594 1.80414 1.50564C0.839612 2.46969 0.297746 3.77721 0.297746 5.14058C0.297746 6.50394 0.839612 7.81147 1.80414 8.77552C2.76867 9.73956 4.07685 10.2812 5.4409 10.2812H25.8016L25.7603 10.3058H28.3099C27.5186 11.1529 27.1054 11.6239 26.6641 12.058C22.4775 16.2044 18.2882 20.3508 14.0963 24.4973C13.9485 24.6157 13.8074 24.7421 13.6735 24.876L7.7285 30.818C6.13456 32.3997 4.07994 34.4542 2.4904 36.0438C2.22665 36.3074 1.99367 36.542 1.78706 36.7591L1.76245 36.7846L1.58661 36.9603C1.08846 37.4458 0.691716 38.0253 0.419375 38.6652C0.147034 39.3051 0.00452232 39.9927 0.000105895 40.6881C-0.00431053 41.3835 0.129457 42.0728 0.393648 42.7161C0.657839 43.3594 1.0472 43.9439 1.53913 44.4357C2.03107 44.9274 2.61581 45.3167 3.25941 45.5808C3.90302 45.8449 4.59269 45.9787 5.28843 45.9744C5.98416 45.97 6.67211 45.8277 7.31238 45.5556C7.95264 45.2834 8.53247 44.887 9.01825 44.3891L15.1821 38.2283C24.7188 28.7896 34.2601 19.3535 43.8062 9.92C47.5198 6.25657 46.2019 0.604566 43.2954 0.0729335Z" fill="#228BE6"/>
<path d="M40.9187 23.5733L27.5447 36.9405C25.4847 38.9995 25.4853 42.3384 27.5454 44.3974C29.6054 46.4564 32.9453 46.4564 35.0054 44.3974L48.3793 31.0302C50.4393 28.9712 50.4387 25.6323 48.3787 23.5733C46.3187 21.5143 42.9787 21.5143 40.9187 23.5733Z" fill="#228BE6"/>
</g>
</svg>
