<svg width="100" height="30" viewBox="0 0 100 30" fill="none" xmlns="http://www.w3.org/2000/svg">
<g clip-path="url(#clip0_249_1276)">
<path d="M34.4147 15.0269C36.2809 15.0269 37.7938 13.5148 37.7938 11.6496C37.7938 9.78433 36.2809 8.27224 34.4147 8.27224C32.5485 8.27224 31.0357 9.78433 31.0357 11.6496C31.0357 13.5148 32.5485 15.0269 34.4147 15.0269Z" fill="#2260E6"/>
<path d="M59.2022 12.4523C58.3451 12.0485 57.4099 11.8372 56.4624 11.8331C54.7728 11.8263 53.2264 12.5435 51.8083 13.8223C51.1088 14.4533 50.7236 14.4297 50.0625 13.8055C48.6146 12.4354 46.8524 11.8027 44.8317 11.8353C41.1756 11.8916 38.5017 15.2211 38.4758 18.876C38.4662 20.2494 38.4758 21.6229 38.4758 22.9963H38.4865C38.4865 24.6614 38.4651 26.3264 38.4955 27.9909C38.5112 28.847 38.968 29.4347 39.8606 29.4319C40.7437 29.4285 41.1784 28.8437 41.2567 27.9959C41.2871 27.6655 41.2708 27.3306 41.2714 26.9974C41.2714 24.2505 41.1852 21.4991 41.3226 18.7589C41.371 17.793 41.776 16.7089 42.3622 15.936C43.3787 14.5952 45.2733 14.2558 46.8163 14.835C48.4817 15.4604 49.4965 16.8406 49.5196 18.6626C49.5573 21.7023 49.5196 24.7419 49.5612 27.777C49.5725 28.6742 49.9177 29.4628 50.9923 29.4296C51.9654 29.3992 52.2769 28.6618 52.358 27.8102C52.3934 27.4387 52.3782 27.0615 52.3782 26.6872C52.3782 23.982 52.3574 21.2761 52.3856 18.5709C52.4087 16.388 54.2063 14.6307 56.3953 14.5789C58.7731 14.5226 60.5572 16.2174 60.6191 18.7347C60.6895 21.6882 60.6394 24.6451 60.6569 27.5997C60.6625 28.5448 60.9092 29.4268 62.0372 29.4296C63.1652 29.4324 63.4322 28.5628 63.4322 27.6081C63.4322 24.6118 63.5026 21.6122 63.3922 18.6193C63.2858 15.7559 61.8424 13.6726 59.2022 12.4523Z" fill="white"/>
<path d="M69.7397 12.6943C66.5358 14.2394 64.7168 16.7623 64.545 20.3305C64.3642 24.0968 66.1326 26.8915 69.4029 28.5487C71.7593 29.7437 75.4604 29.8698 78.3365 28.028C79.1064 27.5349 79.8656 26.9405 79.2264 25.9161C78.5995 24.9119 77.7903 25.2366 76.9624 25.7641C75.4199 26.7463 73.7523 27.0976 71.9293 26.6557C68.9704 25.9386 66.9334 23.1022 67.2849 20.1262C67.6791 16.7888 70.2573 14.5091 73.5715 14.567C76.6853 14.6233 79.2861 16.9802 79.4714 20.0873C79.6245 22.6569 79.6071 25.2372 79.6403 27.8124C79.6521 28.7215 79.9585 29.4364 80.9412 29.4583C81.924 29.4803 82.2895 28.7688 82.2928 27.8642C82.2979 26.5336 82.2928 25.2029 82.2928 23.8728H82.2968C82.2968 22.8331 82.2455 21.7901 82.3052 20.7544C82.6228 15.1879 76.0242 9.66146 69.7397 12.6943Z" fill="white"/>
<path d="M27.7338 0.0467192C27.7304 0.0467192 27.6961 0.0360245 27.6454 0.0258925C27.5525 0.00874971 27.4583 8.35188e-05 27.3638 0H3.48529C2.61152 0 1.77353 0.34693 1.15568 0.964471C0.537832 1.58201 0.190728 2.41958 0.190728 3.29291C0.190728 4.16625 0.537832 5.00381 1.15568 5.62135C1.77353 6.23889 2.61152 6.58582 3.48529 6.58582H16.5278L16.5013 6.60158H18.1345C17.6277 7.14421 17.363 7.44592 17.0803 7.72399C14.3984 10.3801 11.7149 13.0362 9.02972 15.6923C8.93505 15.7681 8.84462 15.8491 8.75884 15.9349L4.95066 19.7411C3.92963 20.7544 2.6135 22.0704 1.59528 23.0887C1.42633 23.2575 1.27709 23.4078 1.14474 23.5469L1.12897 23.5632L1.01634 23.6758C0.69724 23.9867 0.443094 24.3579 0.26864 24.7679C0.094186 25.1778 0.00289687 25.6182 6.78335e-05 26.0637C-0.0027612 26.5091 0.0829262 26.9507 0.25216 27.3628C0.421393 27.7749 0.670804 28.1493 0.985927 28.4643C1.30105 28.7793 1.67561 29.0286 2.08789 29.1978C2.50016 29.367 2.94195 29.4527 3.38762 29.4499C3.83329 29.4471 4.27397 29.3559 4.6841 29.1816C5.09424 29.0073 5.46567 28.7533 5.77684 28.4344L9.72524 24.488C15.8342 18.4418 21.9461 12.3973 28.061 6.35448C30.4399 4.00778 29.5957 0.387268 27.7338 0.0467192Z" fill="#2260E6"/>
<path d="M26.2114 15.1004L17.6444 23.6631C16.3248 24.982 16.3252 27.1208 17.6448 28.4398C18.9644 29.7587 21.1039 29.7587 22.4235 28.4398L30.9904 19.8771C32.31 18.5581 32.3096 16.4193 30.99 15.1004C29.6704 13.7814 27.531 13.7814 26.2114 15.1004Z" fill="#2260E6"/>
<path d="M93.9933 21.4236C93.8198 21.2381 93.723 20.9939 93.7221 20.74C93.7213 20.4861 93.8165 20.2413 93.9888 20.0547L99.6712 13.8978C100.39 13.1159 99.8587 11.8353 98.7645 11.8353C98.4204 11.8353 98.1078 11.9913 97.8578 12.2412L92.3691 18.1684C92.2753 18.2697 92.1616 18.3506 92.0352 18.4061C91.9087 18.4615 91.7722 18.4904 91.6341 18.4909C91.4961 18.4914 91.3594 18.4634 91.2325 18.4088C91.1057 18.3542 90.9915 18.2741 90.897 18.1735L85.3216 12.2412C85.2069 12.1143 85.0671 12.0127 84.911 11.9428C84.7549 11.8729 84.5859 11.8363 84.4149 11.8353C83.3516 11.8353 82.789 13.1159 83.5076 13.8978L89.3325 20.0575C89.5078 20.2429 89.6061 20.488 89.6074 20.7431C89.6088 20.9982 89.5131 21.2442 89.3398 21.4315L83.8506 27.3666C83.1004 28.1479 83.663 29.4291 84.7263 29.4291C84.8979 29.4311 85.0678 29.3958 85.2244 29.3257C85.381 29.2555 85.5204 29.1521 85.633 29.0227L90.902 23.3172C90.9959 23.2157 91.1096 23.1346 91.2362 23.079C91.3628 23.0233 91.4995 22.9943 91.6377 22.9938C91.776 22.9933 91.9129 23.0212 92.0399 23.0759C92.1669 23.1306 92.2813 23.2108 92.3759 23.3116L97.7328 29.0227C97.9828 29.2726 98.2959 29.4291 98.6395 29.4291C99.7337 29.4291 100.265 28.1479 99.5462 27.3666L93.9933 21.4236Z" fill="white"/>
</g>
<defs>
<clipPath id="clip0_249_1276">
<rect width="100" height="29.4588" fill="white"/>
</clipPath>
</defs>
</svg>
