<svg width="89" height="205" viewBox="0 0 89 205" fill="none" xmlns="http://www.w3.org/2000/svg">
<g id="suply-mobule-arrow.svg">
<path id="Line 1 (Stroke)" fill-rule="evenodd" clip-rule="evenodd" d="M85 194.5L85 0.638672L88 0.638672L88 194.5L85 194.5Z" fill="#228BE6"/>
<path id="Vector" d="M26.4393 58.1066C25.8536 57.5209 25.8536 56.5711 26.4393 55.9853L35.9852 46.4394C36.571 45.8536 37.5208 45.8536 38.1066 46.4394C38.6924 47.0252 38.6924 47.9748 38.1066 48.5606L29.6213 57.046L38.1066 65.5313C38.6924 66.1171 38.6924 67.0668 38.1066 67.6526C37.5208 68.2384 36.571 68.2384 35.9852 67.6526L26.4393 58.1066ZM88.0957 58.546H27.5V55.546H88.0957V58.546Z" fill="#228BE6"/>
<path id="Vector_2" d="M22.4393 191.986C21.8536 192.572 21.8536 193.521 22.4393 194.106L31.9852 203.652C32.571 204.238 33.5208 204.238 34.1066 203.652C34.6924 203.067 34.6924 202.117 34.1066 201.531L25.6213 193.046L34.1066 184.561C34.6924 183.975 34.6924 183.026 34.1066 182.44C33.5208 181.854 32.571 181.854 31.9852 182.44L22.4393 191.986ZM88 191.546H23.5V194.546H88V191.546Z" fill="#228BE6"/>
</g>
</svg>
